<svg width="197" height="391" viewBox="0 0 197 391" fill="none" xmlns="http://www.w3.org/2000/svg">
<path d="M65.7426 168.464C66.9054 168.336 68.0259 167.954 69.0253 167.346C70.0247 166.738 70.8786 165.919 71.5269 164.945C72.1752 163.971 72.6021 162.867 72.7776 161.711C72.9531 160.554 72.8729 159.373 72.5426 158.251L95.6813 141.723L81.8918 136.414L62.0329 152.923C60.1844 153.602 58.6495 154.937 57.719 156.673C56.7885 158.408 56.5272 160.425 56.9845 162.341C57.4418 164.257 58.5859 165.938 60.2001 167.067C61.8143 168.195 63.7864 168.692 65.7426 168.464V168.464Z" fill="#FFB7B7"/>
<path d="M78.5881 157.579L70.9121 144.468L71.0751 144.283L102.046 109.023L126.092 68.0156L146.973 70.677L147.281 76.9887L147.219 77.083L114.044 126.953L114.009 126.983L78.5881 157.579Z" fill="#3F3D56"/>
<path d="M72.1227 167.983L30.6348 191.463L0.273438 137.817L41.7614 114.337L72.1227 167.983Z" fill="#E5E5E5"/>
<path d="M40.615 134.755L18.3682 147.346L20.5316 151.168L42.7784 138.577L40.615 134.755Z" fill="#3AD4AF"/>
<path d="M46.24 144.693L23.9932 157.284L26.1566 161.107L48.4034 148.516L46.24 144.693Z" fill="#3AD4AF"/>
<path d="M51.865 154.632L29.6182 167.223L31.7816 171.045L54.0284 158.454L51.865 154.632Z" fill="#3AD4AF"/>
<path d="M180.915 379.425H169.107L163.489 333.877L180.917 333.878L180.915 379.425Z" fill="#FFB7B7"/>
<path d="M183.927 390.872L145.851 390.871V390.389C145.851 386.458 147.412 382.689 150.192 379.91C152.971 377.131 156.74 375.569 160.671 375.569H160.672L183.927 375.57L183.927 390.872Z" fill="#2F2E41"/>
<path d="M79.2848 379.039L67.7998 376.296L72.9128 330.689L89.8638 334.737L79.2848 379.039Z" fill="#FFB7B7"/>
<path d="M79.5565 390.872L42.5215 382.028L42.6333 381.56C43.5463 377.737 45.9405 374.433 49.2892 372.375C52.6379 370.318 56.6669 369.674 60.49 370.587L60.4908 370.587L83.1105 375.988L79.5565 390.872Z" fill="#2F2E41"/>
<path d="M125.179 47.1917V27.3147C125.177 23.8155 125.864 20.3502 127.202 17.1168C128.539 13.8834 130.501 10.9452 132.974 8.47015C135.448 5.99511 138.385 4.03171 141.617 2.69214C144.85 1.35257 148.315 0.663086 151.814 0.663086C155.313 0.663086 158.778 1.35257 162.011 2.69214C165.243 4.03171 168.18 5.99511 170.654 8.47015C173.127 10.9452 175.089 13.8834 176.427 17.1168C177.764 20.3502 178.451 23.8155 178.449 27.3147V47.1918C178.448 48.1404 178.071 49.0498 177.4 49.7205C176.729 50.3913 175.82 50.7686 174.871 50.7697H128.757C127.808 50.7686 126.899 50.3913 126.228 49.7205C125.557 49.0498 125.18 48.1403 125.179 47.1917V47.1917Z" fill="#2F2E41"/>
<path d="M145.241 50.4678C156.026 50.4678 164.769 41.7247 164.769 30.9397C164.769 20.1546 156.026 11.4116 145.241 11.4116C134.456 11.4116 125.713 20.1546 125.713 30.9397C125.713 41.7247 134.456 50.4678 145.241 50.4678Z" fill="#FFB7B7"/>
<path d="M118.878 28.9047C118.884 23.3186 121.106 17.9631 125.056 14.0131C129.006 10.0631 134.362 7.84127 139.948 7.83496H143.923C149.509 7.84127 154.865 10.0631 158.815 14.0131C162.765 17.9631 164.987 23.3186 164.993 28.9047V29.3022H156.591L153.726 21.2784L153.153 29.3022H148.811L147.365 25.2538L147.076 29.3022H118.878V28.9047Z" fill="#2F2E41"/>
<path d="M156.631 134.007L106.91 132.114L104.13 99.5855C101.986 93.6315 101.952 88.5194 104.027 84.3916C105.812 81.0012 108.811 78.4094 112.424 77.1344L123.304 63.994C124.703 62.3047 126.461 60.9475 128.45 60.0206C130.438 59.0937 132.608 58.6203 134.802 58.6345L163.069 58.8277C163.751 58.4178 167.883 56.3175 176.034 59.8508C184.876 63.6837 182.823 76.9953 182.801 77.129L182.78 77.254L182.683 77.3362L163.88 93.1707L156.631 134.007Z" fill="#3F3D56"/>
<path d="M107.306 128.619L83.787 171.499L65.9561 366.581L86.1021 372.734L121.764 220.129L163.15 368.404L187.3 369.009L170.857 197.898L156.487 131.649L107.306 128.619Z" fill="#2F2E41"/>
<path d="M170.141 198.038C171.012 197.257 171.7 196.294 172.159 195.218C172.617 194.141 172.833 192.978 172.793 191.809C172.753 190.64 172.457 189.493 171.926 188.451C171.395 187.409 170.642 186.496 169.72 185.776L178.902 158.864L164.6 162.58L158.074 187.566C156.967 189.195 156.496 191.174 156.751 193.127C157.006 195.08 157.968 196.871 159.456 198.162C160.943 199.453 162.853 200.154 164.822 200.131C166.791 200.108 168.684 199.363 170.141 198.038Z" fill="#FFB7B7"/>
<path d="M174.243 181.707L160.367 175.522L165.03 128.576L160.691 81.2368L179.214 71.2373L183.141 76.1882L183.145 76.3006L185.226 136.161L185.215 136.207L174.243 181.707Z" fill="#3F3D56"/>
</svg>
