<svg width="519" height="713" viewBox="0 0 519 713" fill="none" xmlns="http://www.w3.org/2000/svg">
<path d="M364.744 168.892H360.844V61.915C360.844 45.4941 354.321 29.7458 342.71 18.1345C331.098 6.52317 315.35 8.07648e-09 298.929 8.07648e-09H72.2793C64.1485 -0.000131315 56.0973 1.60122 48.5854 4.71262C41.0734 7.82401 34.2479 12.3845 28.4985 18.1338C22.749 23.883 18.1883 30.7084 15.0767 38.2202C11.965 45.7321 10.3634 53.7832 10.3633 61.914V648.798C10.3633 665.219 16.8865 680.967 28.4978 692.579C40.1091 704.19 55.8574 710.713 72.2783 710.713H298.926C315.347 710.713 331.095 704.19 342.707 692.579C354.318 680.967 360.841 665.219 360.841 648.798V245.04H364.741L364.744 168.892Z" fill="#3F3D56"/>
<path d="M348.144 57.7679V652.943C348.142 665.393 343.196 677.333 334.393 686.137C325.591 694.942 313.652 699.89 301.202 699.895H69.9017C57.4468 699.897 45.5011 694.951 36.6921 686.146C27.8832 677.341 22.9324 665.398 22.9287 652.943V57.7679C22.9324 45.3134 27.883 33.3703 36.6915 24.5656C45.5 15.7608 57.4452 10.8153 69.8997 10.8169H97.9577C96.58 14.2049 96.0556 17.8794 96.4307 21.5175C96.8057 25.1556 98.0687 28.6459 100.109 31.6816C102.148 34.7173 104.903 37.2055 108.129 38.9274C111.356 40.6493 114.956 41.5523 118.614 41.5569H250.482C254.139 41.5523 257.739 40.6493 260.966 38.9274C264.193 37.2055 266.947 34.7173 268.987 31.6816C271.027 28.6459 272.29 25.1556 272.665 21.5175C273.04 17.8794 272.515 14.2049 271.138 10.8169H301.193C313.643 10.819 325.582 15.7651 334.387 24.5677C343.191 33.3703 348.139 45.3089 348.144 57.7589V57.7679Z" fill="white"/>
<path d="M290.81 400.596H85.2728C84.2637 400.595 83.2963 400.194 82.5827 399.48C81.8692 398.767 81.4679 397.799 81.4668 396.79V345.806C81.4681 344.797 81.8695 343.83 82.583 343.116C83.2965 342.403 84.2638 342.001 85.2728 342H290.81C291.819 342.001 292.786 342.403 293.5 343.116C294.213 343.83 294.614 344.797 294.616 345.806V396.791C294.614 397.8 294.213 398.767 293.5 399.481C292.786 400.194 291.819 400.596 290.81 400.597V400.596ZM85.2728 343.522C84.6672 343.523 84.0866 343.763 83.6584 344.192C83.2301 344.62 82.9893 345.2 82.9888 345.806V396.791C82.9893 397.397 83.2301 397.977 83.6584 398.405C84.0866 398.834 84.6672 399.074 85.2728 399.075H290.81C291.415 399.074 291.996 398.834 292.424 398.405C292.852 397.977 293.093 397.397 293.094 396.791V345.806C293.093 345.2 292.852 344.62 292.424 344.192C291.996 343.763 291.415 343.523 290.81 343.522H85.2728Z" fill="#E6E6E6"/>
<path d="M148.838 360.361C148.132 360.361 147.454 360.642 146.954 361.141C146.455 361.641 146.174 362.319 146.174 363.025C146.174 363.732 146.455 364.41 146.954 364.909C147.454 365.409 148.132 365.69 148.838 365.69H274.443C275.15 365.717 275.838 365.462 276.356 364.982C276.875 364.502 277.181 363.835 277.208 363.129C277.236 362.423 276.981 361.734 276.501 361.216C276.02 360.697 275.354 360.391 274.647 360.364C274.608 360.362 274.569 360.362 274.53 360.362H148.838V360.361Z" fill="#E6E6E6"/>
<path d="M148.838 376.345C148.132 376.345 147.454 376.626 146.954 377.126C146.455 377.625 146.174 378.303 146.174 379.01C146.174 379.716 146.455 380.394 146.954 380.894C147.454 381.393 148.132 381.674 148.838 381.674H274.443C275.15 381.701 275.838 381.447 276.356 380.966C276.875 380.486 277.181 379.819 277.208 379.113C277.236 378.407 276.981 377.719 276.501 377.2C276.02 376.682 275.354 376.375 274.647 376.348C274.608 376.347 274.569 376.346 274.53 376.346H148.838V376.345Z" fill="#E6E6E6"/>
<path d="M290.81 485.576H85.2728C84.2637 485.575 83.2963 485.174 82.5827 484.46C81.8692 483.746 81.4679 482.779 81.4668 481.77V430.786C81.4681 429.777 81.8695 428.81 82.583 428.096C83.2965 427.383 84.2638 426.981 85.2728 426.98H290.81C291.819 426.981 292.786 427.383 293.5 428.096C294.213 428.81 294.614 429.777 294.616 430.786V481.771C294.614 482.78 294.213 483.747 293.499 484.46C292.786 485.173 291.819 485.575 290.81 485.576V485.576ZM85.2728 428.502C84.6672 428.502 84.0866 428.743 83.6584 429.172C83.2301 429.6 82.9893 430.18 82.9888 430.786V481.771C82.9893 482.377 83.2301 482.957 83.6584 483.385C84.0866 483.814 84.6672 484.054 85.2728 484.055H290.81C291.415 484.054 291.996 483.814 292.424 483.385C292.852 482.957 293.093 482.377 293.094 481.771V430.786C293.093 430.18 292.852 429.6 292.424 429.172C291.996 428.743 291.415 428.502 290.81 428.502H85.2728Z" fill="#E6E6E6"/>
<path d="M148.838 445.617C148.132 445.617 147.454 445.898 146.954 446.398C146.455 446.897 146.174 447.575 146.174 448.282C146.174 448.988 146.455 449.666 146.954 450.166C147.454 450.665 148.132 450.946 148.838 450.946H274.443C275.14 450.942 275.807 450.666 276.303 450.176C276.798 449.686 277.082 449.021 277.093 448.325C277.104 447.628 276.842 446.955 276.363 446.449C275.885 445.943 275.226 445.645 274.53 445.618H148.838V445.617Z" fill="#E6E6E6"/>
<path d="M148.838 461.605C148.132 461.605 147.454 461.886 146.954 462.385C146.455 462.885 146.174 463.563 146.174 464.269C146.174 464.976 146.455 465.654 146.954 466.154C147.454 466.653 148.132 466.934 148.838 466.934H274.443C275.14 466.93 275.807 466.653 276.303 466.164C276.798 465.674 277.082 465.009 277.093 464.313C277.104 463.616 276.842 462.943 276.363 462.437C275.885 461.931 275.226 461.633 274.53 461.606H148.838V461.605Z" fill="#E6E6E6"/>
<path d="M290.81 570.834H85.2728C84.2637 570.833 83.2963 570.431 82.5827 569.718C81.8692 569.004 81.4679 568.037 81.4668 567.028V516.044C81.4681 515.035 81.8695 514.067 82.583 513.354C83.2965 512.641 84.2638 512.239 85.2728 512.238H290.81C291.819 512.239 292.786 512.641 293.5 513.354C294.213 514.067 294.614 515.035 294.616 516.044V567.029C294.614 568.038 294.213 569.005 293.5 569.719C292.786 570.432 291.819 570.834 290.81 570.835V570.834ZM85.2728 513.76C84.6672 513.76 84.0866 514.001 83.6584 514.429C83.2301 514.858 82.9893 515.438 82.9888 516.044V567.029C82.9893 567.634 83.2301 568.215 83.6584 568.643C84.0866 569.071 84.6672 569.312 85.2728 569.313H290.81C291.415 569.312 291.996 569.071 292.424 568.643C292.852 568.215 293.093 567.634 293.094 567.029V516.044C293.093 515.438 292.852 514.858 292.424 514.429C291.996 514.001 291.415 513.76 290.81 513.76H85.2728Z" fill="#E6E6E6"/>
<path d="M148.838 530.878C148.132 530.878 147.454 531.159 146.954 531.658C146.455 532.158 146.174 532.836 146.174 533.542C146.174 534.249 146.455 534.927 146.954 535.427C147.454 535.926 148.132 536.207 148.838 536.207H274.443C274.793 536.22 275.142 536.165 275.47 536.043C275.798 535.922 276.1 535.737 276.356 535.499C276.613 535.261 276.82 534.975 276.967 534.657C277.113 534.339 277.195 533.996 277.208 533.646C277.222 533.296 277.166 532.947 277.045 532.619C276.923 532.291 276.738 531.99 276.501 531.733C276.263 531.476 275.977 531.269 275.659 531.123C275.341 530.976 274.997 530.894 274.647 530.881C274.608 530.879 274.569 530.879 274.53 530.879H148.838V530.878Z" fill="#E6E6E6"/>
<path d="M148.838 546.865C148.132 546.865 147.454 547.146 146.954 547.645C146.455 548.145 146.174 548.823 146.174 549.529C146.174 550.236 146.455 550.914 146.954 551.413C147.454 551.913 148.132 552.194 148.838 552.194H274.443C274.793 552.207 275.142 552.152 275.47 552.03C275.798 551.909 276.1 551.724 276.356 551.486C276.613 551.248 276.82 550.962 276.967 550.644C277.113 550.326 277.195 549.982 277.208 549.633C277.222 549.283 277.166 548.934 277.045 548.606C276.923 548.278 276.738 547.977 276.501 547.72C276.263 547.463 275.977 547.256 275.659 547.109C275.341 546.963 274.997 546.881 274.647 546.868C274.608 546.866 274.569 546.866 274.53 546.866H148.838V546.865Z" fill="#E6E6E6"/>
<path d="M110.915 386.971C119.744 386.971 126.901 379.814 126.901 370.985C126.901 362.156 119.744 354.999 110.915 354.999C102.086 354.999 94.9287 362.156 94.9287 370.985C94.9287 379.814 102.086 386.971 110.915 386.971Z" fill="#3AD4AF"/>
<path d="M103.262 367.999C103.078 367.999 102.929 369.192 102.929 370.663C102.929 372.134 103.078 373.328 103.262 373.328H118.981C119.165 373.352 119.317 372.179 119.32 370.708C119.422 369.792 119.31 368.865 118.992 368H103.262V367.999Z" fill="#E6E6E6"/>
<path d="M110.915 472.264C119.744 472.264 126.901 465.107 126.901 456.278C126.901 447.449 119.744 440.292 110.915 440.292C102.086 440.292 94.9287 447.449 94.9287 456.278C94.9287 465.107 102.086 472.264 110.915 472.264Z" fill="#3AD4AF"/>
<path d="M103.262 453.292C103.078 453.292 102.929 454.485 102.929 455.956C102.929 457.427 103.078 458.621 103.262 458.621H118.981C119.165 458.645 119.317 457.472 119.32 456.001C119.422 455.085 119.31 454.158 118.992 453.293H103.262V453.292Z" fill="#E6E6E6"/>
<path d="M110.915 557.522C119.744 557.522 126.901 550.365 126.901 541.536C126.901 532.707 119.744 525.55 110.915 525.55C102.086 525.55 94.9287 532.707 94.9287 541.536C94.9287 550.365 102.086 557.522 110.915 557.522Z" fill="#3AD4AF"/>
<path d="M103.262 538.55C103.078 538.55 102.929 539.743 102.929 541.214C102.929 542.685 103.078 543.879 103.262 543.879H118.981C119.165 543.903 119.317 542.73 119.32 541.259C119.422 540.343 119.31 539.416 118.992 538.551H103.262V538.55Z" fill="#E6E6E6"/>
<path d="M237.187 256.668C236.357 256.671 235.542 256.444 234.834 256.011C234.126 255.579 233.551 254.958 233.174 254.219C229.967 247.949 225.54 242.383 220.153 237.848C214.766 233.312 208.527 229.899 201.802 227.808C199.049 226.972 196.239 226.336 193.394 225.904L192.814 225.816L222.734 132.27L223.24 132.287C281.368 148.082 314.625 194.668 323.433 208.57C323.769 209.102 323.99 209.698 324.081 210.32C324.172 210.942 324.131 211.576 323.962 212.181C323.793 212.786 323.498 213.35 323.098 213.834C322.697 214.319 322.2 214.714 321.637 214.994L239.206 256.191C238.579 256.505 237.888 256.669 237.187 256.668Z" fill="#E6E6E6"/>
<path d="M384.265 457.274C384.577 455.954 385.174 454.719 386.014 453.655C386.855 452.591 387.919 451.724 389.13 451.115C390.342 450.507 391.673 450.171 393.028 450.132C394.384 450.094 395.732 450.353 396.976 450.891L419.259 426.598L423.423 443.214L401.623 463.735C400.58 465.767 398.829 467.345 396.7 468.171C394.571 468.998 392.213 469.014 390.072 468.217C387.932 467.42 386.159 465.866 385.088 463.849C384.018 461.832 383.725 459.492 384.264 457.273L384.265 457.274Z" fill="#FEB8B8"/>
<path d="M432.123 699.612H418.51L412.032 647.095H432.132L432.123 699.612Z" fill="#FEB8B8"/>
<path d="M435.596 695.166H408.781C404.25 695.166 399.904 696.967 396.699 700.171C393.494 703.375 391.694 707.721 391.693 712.253V712.809H435.593L435.596 695.166Z" fill="#2F2E41"/>
<path d="M510.313 686.124L497.584 690.956L472.891 644.156L491.678 637.026L510.313 686.124Z" fill="#FEB8B8"/>
<path d="M511.983 680.735L486.914 690.25C482.678 691.859 479.254 695.085 477.395 699.218C475.536 703.351 475.396 708.053 477.003 712.289L477.203 712.808L518.248 697.23L511.983 680.735Z" fill="#2F2E41"/>
<path d="M465.493 524.928L476.776 585.642C476.776 585.642 507.401 671.07 505.252 673.219C503.103 675.368 473.552 682.89 475.164 678.055C476.776 673.22 439.703 600.686 439.703 600.686L465.493 524.928Z" fill="#2F2E41"/>
<path d="M419.737 414.598C419.737 414.598 396.96 444.372 399.945 445.998C402.93 447.624 414.492 456.234 414.492 456.234L426.257 423.95L419.737 414.598Z" fill="#E4E4E4"/>
<path d="M413.376 444.65C413.376 444.65 409.615 472.589 411.227 478.499C412.839 484.409 411.764 652.042 410.69 654.728C409.616 657.414 406.39 666.548 408.004 670.846C409.618 675.144 431.644 685.89 434.868 682.129C438.092 678.368 461.734 541.361 461.734 541.361C461.734 541.361 495.046 458.619 487.524 450.561C480.002 442.503 413.376 444.65 413.376 444.65Z" fill="#2F2E41"/>
<path d="M461.714 265.091C476.254 265.091 488.041 253.304 488.041 238.764C488.041 224.224 476.254 212.437 461.714 212.437C447.174 212.437 435.387 224.224 435.387 238.764C435.387 253.304 447.174 265.091 461.714 265.091Z" fill="#FEB8B8"/>
<path d="M434.204 298.264C434.868 294.001 436.988 290.1 440.204 287.224L445.004 272.549H473.213L481.074 284.884C489.574 288.545 495.874 294.351 496.113 301.195C497.413 305.74 491.813 450.023 490.203 455.395C489.73 456.959 483.303 457.795 474.267 458.167C465.982 458.505 455.511 458.457 445.458 458.226C428.813 457.839 413.296 456.947 410.685 456.469C404.78 455.396 433.619 301.654 434.204 298.264Z" fill="#E4E4E4"/>
<path d="M459.144 489.594C460.287 488.864 461.256 487.893 461.983 486.748C462.709 485.603 463.176 484.312 463.35 482.967C463.524 481.623 463.401 480.256 462.99 478.964C462.579 477.671 461.889 476.485 460.97 475.488L476.539 446.432L459.48 447.99L447.312 475.342C445.738 476.997 444.826 479.172 444.749 481.455C444.673 483.738 445.436 485.969 446.895 487.727C448.354 489.484 450.407 490.644 452.665 490.988C454.923 491.333 457.229 490.836 459.145 489.593L459.144 489.594Z" fill="#FEB8B8"/>
<path d="M461.733 282.391C461.733 282.391 437.018 292.599 446.152 318.391C455.286 344.183 465.494 374.806 465.494 374.806C465.494 374.806 452.599 444.116 452.599 446.806C452.599 449.496 444.54 463.999 447.763 466.686C450.986 469.373 472.478 474.745 473.015 472.059C474.662 465.87 476.634 459.772 478.925 453.791C480 451.642 505.252 384.481 502.025 378.571C499.653 374.222 497.571 334.371 496.637 313.632C496.421 307.714 494.668 301.954 491.55 296.919C488.432 291.884 484.057 287.748 478.856 284.917C473.852 282.255 468.02 280.819 461.733 282.391Z" fill="#E4E4E4"/>
<path d="M471.847 250.53C469.847 249.608 467.53 249.417 465.368 248.844C457.634 246.792 452.452 239.155 454.107 232.244C454.411 231.366 454.549 230.438 454.513 229.508C454.224 227.461 451.826 226.14 449.527 225.671C447.228 225.202 444.781 225.271 442.584 224.516C440.994 223.953 439.585 222.972 438.505 221.675C437.425 220.379 436.715 218.816 436.448 217.15C436.108 213.914 436.933 210.662 438.775 207.979L439.606 210.067C440.838 209.177 441.782 207.944 442.32 206.522C443.222 206.631 444.083 206.96 444.826 207.482C445.57 208.005 446.172 208.703 446.58 209.514C447.913 210.201 448.105 207.381 449.58 206.965C450.22 206.894 450.866 207.035 451.418 207.365C454.385 208.574 457.832 207.54 461.018 206.87C466.548 205.716 472.257 205.71 477.789 206.853C481.452 207.616 485.079 208.946 487.701 211.308C489.712 213.282 491.29 215.652 492.337 218.268C495.149 224.45 497.006 231.139 496.078 237.741C495.234 243.281 492.626 248.401 488.642 252.341C486.519 254.478 479.592 261.932 475.794 260.662C471.016 259.062 477.47 253.127 471.847 250.53Z" fill="#2F2E41"/>
<path d="M186.979 274.459C191.397 274.459 194.979 270.878 194.979 266.459C194.979 262.041 191.397 258.459 186.979 258.459C182.56 258.459 178.979 262.041 178.979 266.459C178.979 270.878 182.56 274.459 186.979 274.459Z" fill="#3F3D56"/>
<path d="M133.291 256.552C132.559 256.551 131.838 256.371 131.191 256.027L49.2382 212.793C48.6945 212.506 48.2154 212.111 47.8303 211.632C47.4453 211.153 47.1625 210.6 46.9993 210.007C46.8362 209.415 46.7961 208.795 46.8817 208.186C46.9673 207.578 47.1767 206.993 47.497 206.468C58.4441 188.922 72.3069 173.373 88.488 160.493C116.789 138.062 148.982 126.809 184.166 126.998C197.362 127.056 210.494 128.834 223.23 132.287L223.735 132.423L193.808 225.964L193.386 225.901C190.691 225.494 187.973 225.253 185.248 225.179C154.797 224.32 141.601 245.055 137.34 254.009C137.083 254.552 136.719 255.037 136.268 255.434C135.818 255.831 135.291 256.132 134.72 256.319C134.259 256.473 133.777 256.551 133.291 256.552V256.552Z" fill="#3AD4AF"/>
<path d="M223.108 132.77L201.949 227.33C199.172 226.487 196.338 225.845 193.469 225.41L223.099 132.77H223.108Z" fill="#3F3D56"/>
</svg>
