<svg width="287" height="170" viewBox="0 0 287 170" fill="none" xmlns="http://www.w3.org/2000/svg">
<g clip-path="url(#clip0_314:35)">
<path d="M14.3812 152.962C5.71091 144.963 -0.0159657 133.398 1.6717 121.72C5.15367 97.7246 -10.5605 67.2347 14.8184 58.2845C27.6479 53.752 25.5283 20.4253 35.8382 11.1472C53.6187 -4.84965 82.0957 15.4477 138.394 12.4216C193.508 9.45684 217.874 -19.4148 255.597 22.6116C285.018 55.389 262.772 73.3295 283.592 103.467C296.333 121.92 258.327 161.093 258.327 161.093L23.0861 160.992L14.3812 152.962Z" fill="#EBFFFA"/>
<path d="M16.4775 166.202C16.4775 166.202 18.8771 132.608 37.6733 135.941C56.3576 139.252 54.2034 156.204 63.8015 154.071C73.3996 151.938 74.1807 129.065 77.932 101.814C81.1873 78.1684 94.1474 85.4096 96.563 93.0348C98.5945 99.4282 99.3944 119.544 107.126 120.877C114.858 122.21 117.524 107.013 118.057 99.5481C118.591 92.083 121.257 61.689 130.988 61.2891C140.186 60.9105 144.185 74.4865 144.185 100.348C144.185 126.21 145.252 143.006 149.518 149.938C153.784 156.87 159.382 155.004 161.115 154.071C163.272 152.908 169.78 141.94 171.38 114.745C172.98 87.5505 183.644 91.5497 186.044 95.5489C188.443 99.5481 194.975 121.544 202.974 121.011C210.972 120.477 213.238 115.278 214.571 103.014C215.905 90.7499 217.88 60.3826 228.035 60.7559C238.556 61.1424 242.785 109.178 242.606 123.618C242.379 141.836 256.03 163.402 264.562 163.402" fill="url(#paint0_linear_314:35)"/>
<path d="M16.4775 166.202C16.4775 166.202 18.8771 132.608 37.6733 135.941C56.3576 139.252 54.2034 156.204 63.8015 154.071C73.3996 151.938 74.1807 129.065 77.932 101.814C81.1873 78.1684 94.1474 85.4096 96.563 93.0348C98.5945 99.4282 99.3944 119.544 107.126 120.877C114.858 122.21 117.524 107.013 118.057 99.5481C118.591 92.083 121.257 61.689 130.988 61.2891C140.186 60.9105 144.185 74.4865 144.185 100.348C144.185 126.21 145.252 143.006 149.518 149.938C153.784 156.87 159.382 155.004 161.115 154.071C163.272 152.908 169.78 141.94 171.38 114.745C172.98 87.5505 183.644 91.5497 186.044 95.5489C188.443 99.5481 194.975 121.544 202.974 121.011C210.972 120.477 213.238 115.278 214.571 103.014C215.905 90.7499 217.88 60.3826 228.035 60.7559C238.556 61.1424 242.785 109.178 242.606 123.618C242.379 141.836 256.03 163.402 264.562 163.402" stroke="#5BDEBE" stroke-opacity="0.53" stroke-width="1.33307" stroke-miterlimit="10"/>
<path d="M63.1349 157.403C65.0491 157.403 66.6009 155.851 66.6009 153.937C66.6009 152.023 65.0491 150.471 63.1349 150.471C61.2207 150.471 59.6689 152.023 59.6689 153.937C59.6689 155.851 61.2207 157.403 63.1349 157.403Z" fill="#83E4CD"/>
<path d="M16.2189 169.337C18.1331 169.337 19.6849 167.785 19.6849 165.871C19.6849 163.957 18.1331 162.405 16.2189 162.405C14.3047 162.405 12.7529 163.957 12.7529 165.871C12.7529 167.785 14.3047 169.337 16.2189 169.337Z" fill="#83E4CD"/>
<path d="M109.259 123.81C111.173 123.81 112.725 122.258 112.725 120.344C112.725 118.43 111.173 116.878 109.259 116.878C107.345 116.878 105.793 118.43 105.793 120.344C105.793 122.258 107.345 123.81 109.259 123.81Z" fill="#83E4CD"/>
<path d="M87.9455 89.4437C89.8597 89.4437 91.4114 87.8919 91.4114 85.9777C91.4114 84.0635 89.8597 82.5117 87.9455 82.5117C86.0313 82.5117 84.4795 84.0635 84.4795 85.9777C84.4795 87.8919 86.0313 89.4437 87.9455 89.4437Z" fill="#83E4CD"/>
<path d="M132.238 65.1204C134.153 65.1204 135.704 63.5687 135.704 61.6545C135.704 59.7402 134.153 58.1885 132.238 58.1885C130.324 58.1885 128.772 59.7402 128.772 61.6545C128.772 63.5687 130.324 65.1204 132.238 65.1204Z" fill="#83E4CD"/>
<path d="M181.511 96.8822C183.425 96.8822 184.977 95.3304 184.977 93.4162C184.977 91.502 183.425 89.9502 181.511 89.9502C179.597 89.9502 178.045 91.502 178.045 93.4162C178.045 95.3304 179.597 96.8822 181.511 96.8822Z" fill="#83E4CD"/>
<path d="M205.187 124.402C207.101 124.402 208.653 122.85 208.653 120.936C208.653 119.022 207.101 117.47 205.187 117.47C203.272 117.47 201.721 119.022 201.721 120.936C201.721 122.85 203.272 124.402 205.187 124.402Z" fill="#83E4CD"/>
<path d="M227.419 64.7445C229.333 64.7445 230.885 63.1927 230.885 61.2785C230.885 59.3643 229.333 57.8125 227.419 57.8125C225.505 57.8125 223.953 59.3643 223.953 61.2785C223.953 63.1927 225.505 64.7445 227.419 64.7445Z" fill="#83E4CD"/>
<path d="M264.454 167.156C266.368 167.156 267.92 165.604 267.92 163.69C267.92 161.776 266.368 160.224 264.454 160.224C262.54 160.224 260.988 161.776 260.988 163.69C260.988 165.604 262.54 167.156 264.454 167.156Z" fill="#83E4CD"/>
<path d="M157.249 157.67C159.163 157.67 160.715 156.118 160.715 154.204C160.715 152.29 159.163 150.738 157.249 150.738C155.335 150.738 153.783 152.29 153.783 154.204C153.783 156.118 155.335 157.67 157.249 157.67Z" fill="#83E4CD"/>
<path d="M55.6163 60.9694C62.665 60.9694 68.3791 55.2553 68.3791 48.2066C68.3791 41.1579 62.665 35.4438 55.6163 35.4438C48.5676 35.4438 42.8535 41.1579 42.8535 48.2066C42.8535 55.2553 48.5676 60.9694 55.6163 60.9694Z" fill="white"/>
<path d="M68.366 58.3565C73.4578 58.3565 77.5855 54.2288 77.5855 49.137C77.5855 44.0452 73.4578 39.9175 68.366 39.9175C63.2742 39.9175 59.1465 44.0452 59.1465 49.137C59.1465 54.2288 63.2742 58.3565 68.366 58.3565Z" fill="white"/>
<path d="M207.255 43.3303C214.304 43.3303 220.018 37.6162 220.018 30.5675C220.018 23.5188 214.304 17.8047 207.255 17.8047C200.206 17.8047 194.492 23.5188 194.492 30.5675C194.492 37.6162 200.206 43.3303 207.255 43.3303Z" fill="white"/>
<path d="M220.005 40.7173C225.096 40.7173 229.224 36.5896 229.224 31.4978C229.224 26.406 225.096 22.2783 220.005 22.2783C214.913 22.2783 210.785 26.406 210.785 31.4978C210.785 36.5896 214.913 40.7173 220.005 40.7173Z" fill="white"/>
<path d="M250.359 89.3557L256.696 80.2908C257.392 79.0671 259.325 79.1737 260.266 80.2215L266.497 88.7532C267.782 90.1822 267.102 92.8457 265.183 92.8777L252.582 93.0883C252.143 93.0934 251.709 92.9828 251.325 92.7676C250.941 92.5525 250.621 92.2403 250.396 91.8623C250.171 91.4843 250.049 91.0539 250.042 90.614C250.036 90.174 250.145 89.7401 250.359 89.3557V89.3557Z" fill="#3AD4AF"/>
<path d="M24.26 95.6661L17.9119 104.712C17.2134 105.936 15.2804 105.827 14.342 104.779L8.12186 96.2314C6.83945 94.7996 7.52198 92.1362 9.45493 92.1068L22.0551 91.9122C22.4965 91.9083 22.9312 92.0208 23.3153 92.2384C23.6994 92.456 24.0194 92.771 24.243 93.1516C24.4665 93.5323 24.5858 93.9652 24.5888 94.4066C24.5918 94.848 24.4784 95.2825 24.26 95.6661V95.6661Z" fill="#3AD4AF"/>
</g>
<defs>
<linearGradient id="paint0_linear_314:35" x1="140.514" y1="161.101" x2="140.373" y2="40.5599" gradientUnits="userSpaceOnUse">
<stop stop-color="white"/>
<stop offset="1" stop-color="#83E7CF"/>
</linearGradient>
<clipPath id="clip0_314:35">
<rect width="286.2" height="169.337" fill="white"/>
</clipPath>
</defs>
</svg>
